<svg width="175" height="40" viewBox="0 0 175 40" fill="none" xmlns="http://www.w3.org/2000/svg">
<rect width="175" height="40" fill="white"/>
<path d="M22.47 19.484C23.118 19.76 23.622 20.162 23.982 20.69C24.342 21.218 24.522 21.842 24.522 22.562C24.522 23.642 24.114 24.524 23.298 25.208C22.494 25.892 21.426 26.234 20.094 26.234C18.882 26.234 17.904 25.964 17.16 25.424C16.428 24.884 15.912 24.188 15.612 23.336L17.034 22.526C17.406 23.942 18.426 24.65 20.094 24.65C20.97 24.65 21.648 24.458 22.128 24.074C22.608 23.678 22.848 23.156 22.848 22.508C22.848 21.86 22.62 21.338 22.164 20.942C21.72 20.546 21.096 20.348 20.292 20.348H18.816V18.818H19.878C20.646 18.818 21.258 18.632 21.714 18.26C22.17 17.876 22.398 17.378 22.398 16.766C22.398 16.166 22.182 15.68 21.75 15.308C21.33 14.924 20.742 14.732 19.986 14.732C18.594 14.732 17.664 15.35 17.196 16.586L15.792 15.776C16.548 14.036 17.946 13.166 19.986 13.166C21.198 13.166 22.176 13.502 22.92 14.174C23.676 14.846 24.054 15.698 24.054 16.73C24.054 17.93 23.526 18.848 22.47 19.484ZM33.8002 17H35.3662V26H33.8002V24.452C33.0202 25.64 31.8862 26.234 30.3982 26.234C29.1382 26.234 28.0642 25.778 27.1762 24.866C26.2882 23.942 25.8442 22.82 25.8442 21.5C25.8442 20.18 26.2882 19.064 27.1762 18.152C28.0642 17.228 29.1382 16.766 30.3982 16.766C31.8862 16.766 33.0202 17.36 33.8002 18.548V17ZM30.5962 24.722C31.5082 24.722 32.2702 24.416 32.8822 23.804C33.4942 23.18 33.8002 22.412 33.8002 21.5C33.8002 20.588 33.4942 19.826 32.8822 19.214C32.2702 18.59 31.5082 18.278 30.5962 18.278C29.6962 18.278 28.9402 18.59 28.3282 19.214C27.7162 19.826 27.4102 20.588 27.4102 21.5C27.4102 22.412 27.7162 23.18 28.3282 23.804C28.9402 24.416 29.6962 24.722 30.5962 24.722ZM45.5328 17V26H43.9668V18.494H39.3048V26H37.7388V17H45.5328ZM54.4505 17H55.7105V26H54.1625V19.682L49.1765 26H47.9165V17H49.4645V23.318L54.4505 17ZM62.3243 26.234C60.9683 26.234 59.8403 25.784 58.9403 24.884C58.0403 23.972 57.5903 22.844 57.5903 21.5C57.5903 20.156 58.0403 19.034 58.9403 18.134C59.8403 17.222 60.9683 16.766 62.3243 16.766C63.2123 16.766 64.0103 16.982 64.7183 17.414C65.4263 17.834 65.9543 18.404 66.3023 19.124L64.9883 19.88C64.7603 19.4 64.4063 19.016 63.9263 18.728C63.4583 18.44 62.9243 18.296 62.3243 18.296C61.4243 18.296 60.6683 18.602 60.0563 19.214C59.4563 19.826 59.1562 20.588 59.1562 21.5C59.1562 22.4 59.4563 23.156 60.0563 23.768C60.6683 24.38 61.4243 24.686 62.3243 24.686C62.9243 24.686 63.4643 24.548 63.9443 24.272C64.4243 23.984 64.7903 23.6 65.0423 23.12L66.3743 23.894C65.9903 24.602 65.4383 25.172 64.7183 25.604C63.9983 26.024 63.2003 26.234 62.3243 26.234ZM71.736 20.24C72.636 20.24 73.38 20.51 73.968 21.05C74.568 21.578 74.868 22.268 74.868 23.12C74.868 23.972 74.568 24.668 73.968 25.208C73.38 25.736 72.636 26 71.736 26H67.938V17H69.504V20.24H71.736ZM71.736 24.542C72.18 24.542 72.552 24.416 72.852 24.164C73.164 23.9 73.32 23.552 73.32 23.12C73.32 22.688 73.164 22.34 72.852 22.076C72.552 21.812 72.18 21.68 71.736 21.68H69.504V24.542H71.736ZM87.2793 17H88.8453V26H87.2793V22.238H82.6173V26H81.0513V17H82.6173V20.744H87.2793V17ZM98.681 17H100.247V26H98.681V24.452C97.901 25.64 96.767 26.234 95.279 26.234C94.019 26.234 92.945 25.778 92.057 24.866C91.169 23.942 90.725 22.82 90.725 21.5C90.725 20.18 91.169 19.064 92.057 18.152C92.945 17.228 94.019 16.766 95.279 16.766C96.767 16.766 97.901 17.36 98.681 18.548V17ZM95.477 24.722C96.389 24.722 97.151 24.416 97.763 23.804C98.375 23.18 98.681 22.412 98.681 21.5C98.681 20.588 98.375 19.826 97.763 19.214C97.151 18.59 96.389 18.278 95.477 18.278C94.577 18.278 93.821 18.59 93.209 19.214C92.597 19.826 92.291 20.588 92.291 21.5C92.291 22.412 92.597 23.18 93.209 23.804C93.821 24.416 94.577 24.722 95.477 24.722ZM114.914 17V26H113.348V18.494H108.686V26H107.12V17H114.914ZM122.265 16.766C123.525 16.766 124.599 17.228 125.487 18.152C126.375 19.064 126.819 20.18 126.819 21.5C126.819 22.82 126.375 23.942 125.487 24.866C124.599 25.778 123.525 26.234 122.265 26.234C120.777 26.234 119.643 25.64 118.863 24.452V29.6H117.297V17H118.863V18.548C119.643 17.36 120.777 16.766 122.265 16.766ZM122.067 24.722C122.967 24.722 123.723 24.416 124.335 23.804C124.947 23.18 125.253 22.412 125.253 21.5C125.253 20.588 124.947 19.826 124.335 19.214C123.723 18.59 122.967 18.278 122.067 18.278C121.155 18.278 120.393 18.59 119.781 19.214C119.169 19.826 118.863 20.588 118.863 21.5C118.863 22.412 119.169 23.18 119.781 23.804C120.393 24.416 121.155 24.722 122.067 24.722ZM135.222 17H136.482V26H134.934V19.682L129.948 26H128.688V17H130.236V23.318L135.222 17ZM139.964 22.22C140.12 23.024 140.486 23.648 141.062 24.092C141.65 24.536 142.37 24.758 143.222 24.758C144.41 24.758 145.274 24.32 145.814 23.444L147.146 24.2C146.27 25.556 144.95 26.234 143.186 26.234C141.758 26.234 140.594 25.79 139.694 24.902C138.806 24.002 138.362 22.868 138.362 21.5C138.362 20.144 138.8 19.016 139.676 18.116C140.552 17.216 141.686 16.766 143.078 16.766C144.398 16.766 145.472 17.234 146.3 18.17C147.14 19.094 147.56 20.21 147.56 21.518C147.56 21.746 147.542 21.98 147.506 22.22H139.964ZM143.078 18.242C142.238 18.242 141.542 18.482 140.99 18.962C140.438 19.43 140.096 20.06 139.964 20.852H145.976C145.844 20 145.508 19.352 144.968 18.908C144.428 18.464 143.798 18.242 143.078 18.242ZM158.36 17V26H156.83V19.466L153.968 24.074H153.77L150.908 19.466V26H149.36V17H151.034L153.86 21.554L156.686 17H158.36Z" fill="black"/>
</svg>
